<svg width="1438" height="128" viewBox="0 0 1438 128" fill="none" xmlns="http://www.w3.org/2000/svg">
<g clip-path="url(#clip0_6_2)">
<path opacity="0.2" d="M1437.64 22.2C1188.87 21.6 1060.45 17.5 805.783 26.6C599.718 34 487.77 80.6 368.559 77.8C220.949 74.3 145.597 5.00001 -0.359497 28.1V128.5L1437.64 128V22.2Z" fill="#E7E7E7"/>
<path opacity="0.2" d="M-0.215697 46.1C180.469 15.3 317.007 84.7 359.212 98.4C398.542 111.2 447.29 110.4 493.45 93.1C604.319 51.5 720.294 22.2 835.118 25.6C949.943 29 1068.51 48 1183.33 45.3C1278.96 43 1401.04 47 1436.99 49C1436.99 70.3 1436.99 129 1436.99 129H-0.359497L-0.215697 46.1Z" fill="#E7E7E7"/>
<path opacity="0.4" d="M1438 41.2C1337.48 28.5 1279.89 30.4 1179.02 30C973.742 29.2 828.504 48 649.688 81.1C465.193 115.4 393.077 116.4 143.225 53.6C100.876 43 42.7805 45.6 -0.359497 52.3V130H1437.64L1438 41.2Z" fill="#E7E7E7"/>
<path d="M1175.28 50.1C1035.94 62 911.476 75 766.166 100.1C686.933 113.8 607.124 121.6 527.243 119.7C392.79 116.4 279.547 90 123.956 49.9C36.0938 27.3 -0.287598 45.9 -0.287598 45.9V130H1436.27V46C1436.2 46 1316.49 38.1 1175.28 50.1Z" fill="#E7E7E7"/>
</g>
<defs>
<clipPath id="clip0_6_2">
<rect width="1438" height="128" fill="white"/>
</clipPath>
</defs>
</svg>
