<svg width="100%" height="131" viewBox="0 0 1364 131" fill="none" xmlns="http://www.w3.org/2000/svg">
<g clip-path="url(#clip0_16_2)">
<path opacity="0.25" d="M1.02515 83.2729C60.5343 123.711 194.03 118.22 317.242 70.9916C526.323 -9.18598 757.071 -9.58537 979.831 12.2813C1202.59 34.1479 1424.75 70.093 1648.61 66.2988C1819.85 63.4032 1930.58 55.9146 1998.48 52.9192C1998.48 88.8643 1998.48 129.203 1998.48 129.203H2.52286L1.02515 83.2729Z" fill="#7E184E"/>
<path opacity="0.35" d="M310.253 46.0297C574.949 -11.6822 763.261 26.4596 997.104 52.8194C1281.77 84.9703 1560.44 115.723 1859.19 86.1685C1953.04 76.8826 1978.51 66.5983 1998.48 67.1974C1998.48 99.3483 1998.48 130.101 1998.48 130.101H1.52441V64.202C1.52441 64.202 153.992 80.0777 310.253 46.0297Z" fill="#7E184E"/>
<path opacity="0.35" d="M345.499 54.8163C427.674 28.5564 512.444 8.88645 598.114 18.372C683.783 27.8575 767.355 51.5214 852.126 67.6967C1124.01 119.617 1373.83 84.3712 1670.18 72.689C1760.04 69.1944 1963.53 59.1098 1998.48 60.1082C1998.48 84.0717 1998.48 131 1998.48 131H0.52594V72.0899C0.52594 72.1898 199.922 101.445 345.499 54.8163Z" fill="#7E184E"/>
<path d="M1730.68 96.952C1441.83 115.424 1141.18 114.126 858.117 80.1776C746.387 66.798 641.647 42.0358 529.219 39.4398C416.79 36.8438 280.299 70.3925 176.058 109.233C118.646 130.601 11.609 111.53 0.625732 104.54C0.625732 112.528 0.625732 131 0.625732 131H2000.57V73.0884C2000.47 73.1883 1852.9 89.064 1730.68 96.952Z" fill="#7E184E"/>
</g>
<defs>
<clipPath id="clip0_16_2">
<rect width="2000" height="131" fill="white"/>
</clipPath>
</defs>
</svg>
